<svg width="348" height="125" viewBox="0 0 348 125" fill="none" xmlns="http://www.w3.org/2000/svg">
<path d="M36.072 35.632H13.672L9.256 46H0.68L20.84 1.2H29.032L49.256 46H40.552L36.072 35.632ZM33.32 29.104L24.872 9.52L16.488 29.104H33.32ZM84.2655 46L75.1135 32.88C74.7295 32.9227 74.1535 32.944 73.3855 32.944H63.2735V46H54.9535V1.2H73.3855C77.2682 1.2 80.6388 1.84 83.4975 3.12C86.3988 4.4 88.6175 6.23466 90.1535 8.624C91.6895 11.0133 92.4575 13.8507 92.4575 17.136C92.4575 20.5067 91.6255 23.408 89.9615 25.84C88.3402 28.272 85.9935 30.0853 82.9215 31.28L93.2255 46H84.2655ZM84.0735 17.136C84.0735 14.2773 83.1348 12.08 81.2575 10.544C79.3802 9.008 76.6282 8.24 73.0015 8.24H63.2735V26.096H73.0015C76.6282 26.096 79.3802 25.328 81.2575 23.792C83.1348 22.2133 84.0735 19.9947 84.0735 17.136ZM142.918 46L142.854 16.304L128.134 40.88H124.422L109.702 16.688V46H101.766V1.2H108.614L126.406 30.896L143.878 1.2H150.726L150.79 46H142.918ZM183.819 46.64C179.254 46.64 175.136 45.6587 171.467 43.696C167.798 41.6907 164.918 38.9387 162.827 35.44C160.736 31.8987 159.691 27.952 159.691 23.6C159.691 19.248 160.736 15.3227 162.827 11.824C164.918 8.28266 167.798 5.53066 171.467 3.568C175.136 1.56266 179.254 0.559998 183.819 0.559998C188.384 0.559998 192.502 1.56266 196.171 3.568C199.84 5.53066 202.72 8.26133 204.811 11.76C206.902 15.2587 207.947 19.2053 207.947 23.6C207.947 27.9947 206.902 31.9413 204.811 35.44C202.72 38.9387 199.84 41.6907 196.171 43.696C192.502 45.6587 188.384 46.64 183.819 46.64ZM183.819 39.344C186.806 39.344 189.494 38.6827 191.883 37.36C194.272 35.9947 196.15 34.1173 197.515 31.728C198.88 29.296 199.563 26.5867 199.563 23.6C199.563 20.6133 198.88 17.9253 197.515 15.536C196.15 13.104 194.272 11.2267 191.883 9.904C189.494 8.53867 186.806 7.856 183.819 7.856C180.832 7.856 178.144 8.53867 175.755 9.904C173.366 11.2267 171.488 13.104 170.123 15.536C168.758 17.9253 168.075 20.6133 168.075 23.6C168.075 26.5867 168.758 29.296 170.123 31.728C171.488 34.1173 173.366 35.9947 175.755 37.36C178.144 38.6827 180.832 39.344 183.819 39.344ZM246.078 46L236.926 32.88C236.542 32.9227 235.966 32.944 235.198 32.944H225.086V46H216.766V1.2H235.198C239.081 1.2 242.451 1.84 245.31 3.12C248.211 4.4 250.43 6.23466 251.966 8.624C253.502 11.0133 254.27 13.8507 254.27 17.136C254.27 20.5067 253.438 23.408 251.774 25.84C250.153 28.272 247.806 30.0853 244.734 31.28L255.038 46H246.078ZM245.886 17.136C245.886 14.2773 244.947 12.08 243.07 10.544C241.193 9.008 238.441 8.24 234.814 8.24H225.086V26.096H234.814C238.441 26.096 241.193 25.328 243.07 23.792C244.947 22.2133 245.886 19.9947 245.886 17.136ZM108.294 124.64C103.729 124.64 99.6113 123.659 95.942 121.696C92.2727 119.691 89.3927 116.939 87.302 113.44C85.2113 109.899 84.166 105.952 84.166 101.6C84.166 97.248 85.2113 93.3227 87.302 89.824C89.3927 86.2827 92.2727 83.5307 95.942 81.568C99.6113 79.5627 103.729 78.56 108.294 78.56C112.859 78.56 116.977 79.5627 120.646 81.568C124.315 83.5307 127.195 86.2613 129.286 89.76C131.377 93.2587 132.422 97.2053 132.422 101.6C132.422 105.995 131.377 109.941 129.286 113.44C127.195 116.939 124.315 119.691 120.646 121.696C116.977 123.659 112.859 124.64 108.294 124.64ZM108.294 117.344C111.281 117.344 113.969 116.683 116.358 115.36C118.747 113.995 120.625 112.117 121.99 109.728C123.355 107.296 124.038 104.587 124.038 101.6C124.038 98.6133 123.355 95.9253 121.99 93.536C120.625 91.104 118.747 89.2267 116.358 87.904C113.969 86.5387 111.281 85.856 108.294 85.856C105.307 85.856 102.619 86.5387 100.23 87.904C97.8407 89.2267 95.9633 91.104 94.598 93.536C93.2327 95.9253 92.55 98.6133 92.55 101.6C92.55 104.587 93.2327 107.296 94.598 109.728C95.9633 112.117 97.8407 113.995 100.23 115.36C102.619 116.683 105.307 117.344 108.294 117.344ZM149.561 86.176V99.808H171.193V106.848H149.561V124H141.241V79.2H173.945V86.176H149.561ZM230.271 101.088H238.143V118.944C235.839 120.779 233.151 122.187 230.079 123.168C227.007 124.149 223.849 124.64 220.607 124.64C216.041 124.64 211.924 123.659 208.255 121.696C204.585 119.691 201.705 116.939 199.615 113.44C197.524 109.941 196.479 105.995 196.479 101.6C196.479 97.2053 197.524 93.2587 199.615 89.76C201.705 86.2613 204.585 83.5307 208.255 81.568C211.967 79.5627 216.127 78.56 220.735 78.56C224.489 78.56 227.903 79.1787 230.975 80.416C234.047 81.6533 236.628 83.4667 238.719 85.856L233.471 90.976C230.057 87.5627 225.94 85.856 221.119 85.856C217.961 85.856 215.145 86.5173 212.671 87.84C210.239 89.1627 208.319 91.0187 206.911 93.408C205.545 95.7973 204.863 98.528 204.863 101.6C204.863 104.587 205.545 107.275 206.911 109.664C208.319 112.053 210.239 113.931 212.671 115.296C215.145 116.661 217.94 117.344 221.055 117.344C224.553 117.344 227.625 116.576 230.271 115.04V101.088ZM270.044 124.64C265.479 124.64 261.361 123.659 257.692 121.696C254.023 119.691 251.143 116.939 249.052 113.44C246.961 109.899 245.916 105.952 245.916 101.6C245.916 97.248 246.961 93.3227 249.052 89.824C251.143 86.2827 254.023 83.5307 257.692 81.568C261.361 79.5627 265.479 78.56 270.044 78.56C274.609 78.56 278.727 79.5627 282.396 81.568C286.065 83.5307 288.945 86.2613 291.036 89.76C293.127 93.2587 294.172 97.2053 294.172 101.6C294.172 105.995 293.127 109.941 291.036 113.44C288.945 116.939 286.065 119.691 282.396 121.696C278.727 123.659 274.609 124.64 270.044 124.64ZM270.044 117.344C273.031 117.344 275.719 116.683 278.108 115.36C280.497 113.995 282.375 112.117 283.74 109.728C285.105 107.296 285.788 104.587 285.788 101.6C285.788 98.6133 285.105 95.9253 283.74 93.536C282.375 91.104 280.497 89.2267 278.108 87.904C275.719 86.5387 273.031 85.856 270.044 85.856C267.057 85.856 264.369 86.5387 261.98 87.904C259.591 89.2267 257.713 91.104 256.348 93.536C254.983 95.9253 254.3 98.6133 254.3 101.6C254.3 104.587 254.983 107.296 256.348 109.728C257.713 112.117 259.591 113.995 261.98 115.36C264.369 116.683 267.057 117.344 270.044 117.344ZM302.991 79.2H322.575C327.354 79.2 331.599 80.1387 335.311 82.016C339.023 83.8507 341.903 86.4747 343.951 89.888C345.999 93.2587 347.023 97.1627 347.023 101.6C347.023 106.037 345.999 109.963 343.951 113.376C341.903 116.747 339.023 119.371 335.311 121.248C331.599 123.083 327.354 124 322.575 124H302.991V79.2ZM322.191 116.96C325.476 116.96 328.356 116.341 330.831 115.104C333.348 113.824 335.268 112.032 336.591 109.728C337.956 107.381 338.639 104.672 338.639 101.6C338.639 98.528 337.956 95.84 336.591 93.536C335.268 91.1893 333.348 89.3973 330.831 88.16C328.356 86.88 325.476 86.24 322.191 86.24H311.311V116.96H322.191Z" fill="black"/>
</svg>
